<?xml version="1.0" encoding="utf-8"?>
<svg xmlns="http://www.w3.org/2000/svg" xml:space="preserve" id="_x32_" width="800" height="800" version="1.1" viewBox="0 0 512 512">
<path d="M345.934 233.32a6.927 6.927 0 0 0-9.438 2.619c-1.882 3.329-.71 7.565 2.624 9.447 5.114 2.912 8.235 6.161 10.298 9.518-8.54 3-16.11 4.234-22.799 4.234-9.789-.009-17.796-2.593-24.548-6.552-6.734-3.968-12.18-9.393-16.309-15.022-6.806-9.278-15.661-17.542-26.098-23.571-10.422-6.011-22.479-9.767-35.419-9.767-11.347-.008-23.305 2.913-35.153 9.42a63.472 63.472 0 0 0-12.7 9.153c-14.414 5.549-26.834 7.546-37.341 7.546-14.969 0-26.151-4.022-33.627-7.973-3.733-1.971-6.525-3.933-8.332-5.353a40.344 40.344 0 0 1-1.976-1.66l-.426-.409-.067-.062h-.003a6.926 6.926 0 0 0-9.948 9.641c.386.391 5.149 5.265 14.267 10.095 3.991 2.113 8.883 4.19 14.534 5.886-1.501 2.113-3.551 5.202-5.784 9.135-4.293 7.573-9.225 18.201-11.738 30.737-.75 3.746 1.683 7.396 5.434 8.15 3.751.745 7.404-1.688 8.15-5.442 2.108-10.556 6.414-19.94 10.205-26.608a93.674 93.674 0 0 1 4.906-7.778c.63-.896 1.136-1.58 1.474-2.024.168-.214.297-.382.373-.48l.08-.098.009-.009.004-.009a6.773 6.773 0 0 0 1.309-2.583c3.525.434 7.227.701 11.156.692 7.284.009 15.261-.852 23.851-2.805-4.258 9.18-6.01 18.76-6.015 27.54.017 8.843 1.7 16.869 4.701 23.261a6.932 6.932 0 0 0 9.228 3.303 6.926 6.926 0 0 0 3.298-9.224v-.009c-1.926-4.013-3.392-10.334-3.369-17.331-.005-7.546 1.624-15.856 5.531-23.438 3.928-7.582 10.028-14.498 19.479-19.701 9.974-5.46 19.496-7.698 28.49-7.706 10.24 0 19.887 2.957 28.498 7.91 8.603 4.963 16.119 11.95 21.844 19.762 5.038 6.872 11.778 13.655 20.452 18.769 8.656 5.114 19.284 8.478 31.58 8.469 8.136 0 16.975-1.474 26.466-4.706l.022.497c0 3.392-.528 6.481-1.056 8.665a33.042 33.042 0 0 1-.706 2.513 19.12 19.12 0 0 1-.208.594l-.04.107-.004.017h.004a6.925 6.925 0 0 0 12.873 5.114c.177-.497 2.966-7.413 2.992-17.011 0-5.505-.964-11.968-4.164-18.35-3.178-6.379-8.665-12.505-16.864-17.113z" />
<path d="M361.382 187.056c-19.043 0-34.336-7.014-44.914-16.194-5.278-4.581-9.336-9.704-12.003-14.604-2.681-4.91-3.911-9.58-3.893-13.078a6.926 6.926 0 0 0-6.929-6.925 6.923 6.923 0 0 0-6.926 6.925c.018 6.516 2.055 13.193 5.58 19.692 3.689 6.766 9.078 13.335 15.928 19.123a76.023 76.023 0 0 1-5.718 7.032c-5.278 5.762-12.886 12.145-21.969 15.368-3.604 1.287-5.482 5.256-4.194 8.851 1.287 3.605 5.252 5.488 8.852 4.199 12.327-4.43 21.555-12.508 27.815-19.381a89.399 89.399 0 0 0 6.561-8.123c11.462 6.614 25.618 10.982 41.812 10.973a6.93 6.93 0 0 0 6.93-6.925c-.003-3.825-3.11-6.933-6.932-6.933zM315.197 322.537c-12.961 0-23.26-2.504-31.535-6.33-12.385-5.753-20.42-14.595-25.476-23.412-2.521-4.395-4.261-8.771-5.358-12.616-1.101-3.826-1.532-7.182-1.523-9.215a6.923 6.923 0 0 0-6.925-6.926 6.924 6.924 0 0 0-6.929 6.926c0 2.495.297 5.256.906 8.292 1.056 5.291 3.067 11.409 6.326 17.712 4.888 9.447 12.647 19.354 24.242 26.884 2.903 1.899 6.046 3.622 9.428 5.166.528 2.273 1.261 6.321 1.256 11.204 0 3.552-.382 7.511-1.456 11.569-1.074 4.057-2.823 8.195-5.602 12.216a6.927 6.927 0 0 0 1.754 9.642c3.148 2.175 7.462 1.394 9.638-1.749a52.677 52.677 0 0 0 7.608-16.567c1.434-5.424 1.913-10.582 1.913-15.111 0-2.264-.124-4.359-.311-6.276 6.677 1.554 13.992 2.459 22.044 2.45 3.823 0 6.926-3.107 6.926-6.934a6.931 6.931 0 0 0-6.926-6.925zM409.302 218.468c-3.431-2.956-7.133-5.38-11.04-7.103-3.902-1.722-8.026-2.752-12.248-2.752a6.926 6.926 0 0 0-6.929 6.925 6.928 6.928 0 0 0 6.929 6.934c2.548-.009 5.771.879 9.158 2.841 5.078 2.912 10.357 8.141 14.196 14.693 3.862 6.543 6.308 14.33 6.304 22.373-.031 8.852-2.819 18.085-10.365 27.266a6.93 6.93 0 0 0 10.685 8.824c9.508-11.472 13.565-24.194 13.534-36.09 0-7.227-1.447-14.142-3.879-20.446-3.659-9.448-9.487-17.535-16.345-23.465zM168.073 181.534v-.009c4.759-5.638 11.538-10.059 19.266-13.033 7.715-2.983 16.327-4.475 24.384-4.466 7.848-.018 15.155 1.429 20.514 3.924a6.935 6.935 0 0 0 9.198-3.391c1.602-3.472.084-7.582-3.387-9.19-7.741-3.56-16.837-5.194-26.324-5.202-9.739 0-19.901 1.758-29.365 5.388-9.441 3.64-18.235 9.199-24.862 17.02a6.929 6.929 0 0 0 .812 9.766c2.919 2.478 7.292 2.105 9.764-.807zM481.632 161.514l.005.009zM336.159 392.808v.009h-.005z" />
<path d="M492.215 208.417c-1.225-1.243-2.539-2.424-3.87-3.586.696-3.88 1.1-7.831 1.1-11.844a67.318 67.318 0 0 0-7.808-31.464 67.482 67.482 0 0 0-25.401-26.715 67.56 67.56 0 0 0-23.642-8.532 68.57 68.57 0 0 0-9.438-20.224c-7.08-10.334-17.148-18.892-29.467-24.193a68.652 68.652 0 0 0-27.14-5.611s-.28-.009-.79.036a68.829 68.829 0 0 0-32.69 8.692 68.602 68.602 0 0 0-13.375-12.35c-10.956-7.697-24.353-12.261-38.687-12.403a36.23 36.23 0 0 0-.608-.026h-.185c-.133 0-.293.009-.497.017-12.482.098-24.277 3.543-34.354 9.508-4.368 2.575-8.354 5.673-12.012 9.118a68.392 68.392 0 0 0-35.917-10.37l-.048-.008h-.39c-.16 0-.36.008-.613.026-13.979.133-27.088 4.466-37.896 11.817a68.606 68.606 0 0 0-16.279 15.545 68.221 68.221 0 0 0-17.841-2.396c-5.091 0-10.254.577-15.394 1.749a68.573 68.573 0 0 0-37.334 22.861h.005c-6.503 7.768-11.195 16.93-13.77 26.812-9.873 3.348-19.177 8.959-26.959 16.886-.004.009-.013.018-.022.027a68.485 68.485 0 0 0-19.616 48.004V210.076h.004c.017 6.01.83 12.003 2.415 17.827A68.86 68.86 0 0 0 0 269.073a68.582 68.582 0 0 0 8.128 32.369 68.602 68.602 0 0 0 25.8 26.856c7.404 4.341 15.532 7.21 23.952 8.559 4.484 12.048 12.172 22.444 22.009 30.141a68.46 68.46 0 0 0 42.278 14.596c1.643 0 3.281-.052 4.918-.177H127.156a68.544 68.544 0 0 0 19.904-4.501 68.944 68.944 0 0 0 15.395 17.348 68.487 68.487 0 0 0 42.517 15.031c.058.009.106.009.156.009h.308l.173-.009h.049a68.844 68.844 0 0 0 3.826-.142h.018l.75-.018a68.54 68.54 0 0 0 16.447-3.249c6.583 9.775 15.75 18.022 27.092 23.492h-.005a68.578 68.578 0 0 0 29.8 6.827c9.756 0 19.3-2.121 28.054-6.046 12.722 13.512 30.661 21.627 49.957 21.646 4.231 0 8.51-.391 12.79-1.199a68.57 68.57 0 0 0 40.378-23.9h-.004c6.436-7.821 11.067-17.054 13.544-27.016 11.368-1.118 22.648-5.078 32.618-12.092a68.489 68.489 0 0 0 21.765-25.072 68.964 68.964 0 0 0 7.467-31.216c0-7.2-1.172-14.428-3.476-21.397a68.42 68.42 0 0 0 15.323-17.578 68.56 68.56 0 0 0 9.997-35.638c-.003-17.783-6.897-35.229-19.784-48.28zm-10.938 71.327c-6.965 11.47-18.192 18.609-30.457 20.731a6.927 6.927 0 1 0 2.344 13.654 58.402 58.402 0 0 0 8.315-2.068 44.129 44.129 0 0 1 4.426 19.248 44.729 44.729 0 0 1-4.838 20.242c-3.192 6.278-7.898 11.861-14.077 16.212-7.781 5.451-16.615 8.053-25.418 8.061-.688 0-1.376-.053-2.064-.088-.146-1.154-.289-2.299-.502-3.445v-.009a58.367 58.367 0 0 0-8.936-21.769l-.524-.782-.71-.613c-5.252-4.492-12.217-11.879-17.593-19.407-2.694-3.756-4.998-7.556-6.547-10.938-1.568-3.383-2.286-6.34-2.26-8.088 0-.781.116-1.305.245-1.66.137-.346.266-.551.537-.834a6.927 6.927 0 0 0-9.798-9.793v-.008a16.24 16.24 0 0 0-3.742 5.85c-.781 2.131-1.096 4.324-1.096 6.446.026 4.803 1.478 9.348 3.52 13.858 3.095 6.73 7.711 13.415 12.696 19.514 4.692 5.736 9.686 10.876 14.156 14.818 3.076 4.741 5.323 10.086 6.433 15.972.466 2.477.723 4.936.759 7.306l.004.036c.005.32.009.631.009.95 0 10.477-3.725 20.375-10.13 28.179-6.415 7.796-15.44 13.442-26.124 15.457a44.957 44.957 0 0 1-8.301.782c-14.693.009-28.286-7.36-36.453-19.115a58.44 58.44 0 0 0 11.008-15.625 58.3 58.3 0 0 0 5.762-22.817 6.93 6.93 0 1 0-13.846-.621 44.278 44.278 0 0 1-4.394 17.4l-.004.018a44.452 44.452 0 0 1-11.804 15.04l-.026.017a44.684 44.684 0 0 1-28.259 10.104c-6.472 0-13.029-1.421-19.266-4.422-11.551-5.576-19.572-15.43-23.119-26.758l-.005-.009a44.407 44.407 0 0 1-2.055-13.335c0-6.472 1.421-13.024 4.434-19.292a6.917 6.917 0 0 0-3.232-9.242 6.927 6.927 0 0 0-9.246 3.232 58.153 58.153 0 0 0-5.811 25.303c0 4.119.471 8.195 1.323 12.19a44.49 44.49 0 0 1-18.112 5.328h-.013c-1.074.071-2.14.106-3.187.106-10.401 0-20.038-3.605-27.7-9.73a44.417 44.417 0 0 1-14.507-20.9c4.878-4.812 8.918-10.44 11.87-16.682a6.933 6.933 0 0 0-3.303-9.225 6.927 6.927 0 0 0-9.225 3.303 44.764 44.764 0 0 1-11.617 15.084c-6.934 5.85-15.692 9.624-25.444 10.325h-.014c-1.07.071-2.135.115-3.187.115-22 .009-40.777-16.22-43.947-37.971l-.008-.054-.009-.054a35.787 35.787 0 0 1-.369-3.231 44.974 44.974 0 0 1 .644-11.435 6.941 6.941 0 0 0-5.557-8.08 6.932 6.932 0 0 0-8.07 5.558 59.042 59.042 0 0 0-.986 10.743l.014.399c-6.228-.693-12.274-2.672-17.69-5.85-6.832-4.005-12.66-9.855-16.682-17.366a44.273 44.273 0 0 1-5.265-20.926 44.73 44.73 0 0 1 8.075-25.586 58.729 58.729 0 0 0 6.854 8.052 57.977 57.977 0 0 0 19.79 12.758c3.565 1.386 7.578-.39 8.958-3.959a6.926 6.926 0 0 0-3.959-8.959 44.212 44.212 0 0 1-15.08-9.73l-.009-.008a44.407 44.407 0 0 1-9.172-12.927 44.535 44.535 0 0 1-4.181-18.866c.004-11.249 4.208-22.426 12.691-31.1 7.213-7.342 16.292-11.64 25.728-12.927h.018l.026-.009c1.994-.266 4-.408 6.015-.399 11.245.009 22.444 4.218 31.114 12.696a6.932 6.932 0 0 0 9.797-.106 6.923 6.923 0 0 0-.106-9.793c-11.032-10.805-25.338-16.327-39.668-16.602a44.657 44.657 0 0 1 9.1-17.987c6.019-7.191 14.299-12.518 24.157-14.791a44.777 44.777 0 0 1 9.97-1.136 44.354 44.354 0 0 1 16.664 3.267 58.634 58.634 0 0 0-2.299 16.22 6.927 6.927 0 0 0 6.929 6.925 6.923 6.923 0 0 0 6.925-6.925 44.596 44.596 0 0 1 3.401-17.108c3.346-8.026 9.002-14.88 16.118-19.719 7.13-4.838 15.684-7.644 24.961-7.653 13.348.009 25.272 5.851 33.444 15.164l.014.009c6.871 7.821 11.013 18.049 11.018 29.306a6.923 6.923 0 0 0 6.929 6.925 6.922 6.922 0 0 0 6.925-6.925 58.036 58.036 0 0 0-11.142-34.288c3.587-4.971 8.159-9.18 13.45-12.305 6.623-3.915 14.312-6.152 22.586-6.152 9.504 0 18.249 2.965 25.472 8.035 7.222 5.06 12.878 12.225 16.069 20.579l-.004-.008a44.474 44.474 0 0 1 2.921 15.874 6.924 6.924 0 0 0 6.926 6.926 6.927 6.927 0 0 0 6.929-6.926c0-5.718-.857-11.24-2.393-16.46 8.203-7.644 19.092-11.968 30.328-11.968 5.868 0 11.817 1.172 17.57 3.64 8.022 3.454 14.463 8.949 19.057 15.643a44.607 44.607 0 0 1 7.827 25.213 44.484 44.484 0 0 1-3.631 17.562 6.925 6.925 0 0 0 3.626 9.099c3.516 1.518 7.59-.115 9.1-3.631a58.144 58.144 0 0 0 4.549-18.315 43.63 43.63 0 0 1 19.266 5.975c6.689 3.96 12.38 9.73 16.282 17.135v.008a43.039 43.039 0 0 1 5.016 20.163c0 3.125-.36 6.214-1.021 9.242a58.056 58.056 0 0 0-12.803-3.338 6.924 6.924 0 0 0-7.821 5.904 6.926 6.926 0 0 0 5.895 7.822 44.402 44.402 0 0 1 12.74 3.8 6.912 6.912 0 0 0 3.174 2.752 6.853 6.853 0 0 0 2.624.55 43.832 43.832 0 0 1 6.96 5.727l-.093-.097.111.115c8.296 8.381 12.788 19.701 12.784 31.233a44.15 44.15 0 0 1-6.471 23.045z" />
</svg>
