<?xml version="1.0" encoding="UTF-8" standalone="no"?>
<!-- Created with Inkscape (http://www.inkscape.org/) -->

<svg
   version="1.1"
   id="svg2"
   width="827.19202"
   height="789.00934"
   viewBox="0 0 827.19202 789.00934"
   sodipodi:docname="DietWise_icon_LightGreen.svg"
   inkscape:version="1.2.2 (b0a8486541, 2022-12-01)"
   xmlns:inkscape="http://www.inkscape.org/namespaces/inkscape"
   xmlns:sodipodi="http://sodipodi.sourceforge.net/DTD/sodipodi-0.dtd"
   xmlns="http://www.w3.org/2000/svg"
   xmlns:svg="http://www.w3.org/2000/svg">
  <defs
     id="defs6">
    <clipPath
       clipPathUnits="userSpaceOnUse"
       id="clipPath16">
      <path
         d="M 0,591.758 H 620.394 V 0 H 0 Z"
         id="path14" />
    </clipPath>
  </defs>
  <sodipodi:namedview
     id="namedview4"
     pagecolor="#ffffff"
     bordercolor="#666666"
     borderopacity="1.0"
     inkscape:showpageshadow="2"
     inkscape:pageopacity="0.0"
     inkscape:pagecheckerboard="0"
     inkscape:deskcolor="#d1d1d1"
     showgrid="false"
     inkscape:zoom="0.94168721"
     inkscape:cx="413.6193"
     inkscape:cy="394.50467"
     inkscape:window-width="1920"
     inkscape:window-height="1022"
     inkscape:window-x="0"
     inkscape:window-y="1080"
     inkscape:window-maximized="1"
     inkscape:current-layer="g8" />
  <g
     id="g8"
     inkscape:groupmode="layer"
     inkscape:label="DietWise_icon"
     transform="matrix(1.3333333,0,0,-1.3333333,0,789.00933)">
    <g
       id="g10">
      <g
         id="g12"
         clip-path="url(#clipPath16)">
        <g
           id="g18"
           transform="translate(310.1962,591.7579)">
          <path
             d="m 0,0 c -171.043,0 -310.196,-139.153 -310.196,-310.196 0,-120.593 70.77,-231.194 180.297,-281.768 l 10.56,22.873 c -100.637,46.472 -165.663,148.093 -165.663,258.895 0,157.15 127.852,285.002 285.002,285.002 157.151,0 285.004,-127.852 285.004,-285.002 0,-110.807 -65.03,-212.429 -165.672,-258.897 l 10.562,-22.873 c 109.53,50.57 180.303,161.171 180.303,281.77 C 310.197,-139.153 171.043,0 0,0"
             style="fill:#8bc751;fill-opacity:1;fill-rule:nonzero;stroke:none"
             id="path20" />
        </g>
        <g
           id="g22"
           transform="translate(361.2353,318.4337)">
          <path
             d="m 0,0 8.091,21.279 c 8.638,-17.946 23.865,-32.758 43.907,-40.38 9.396,-3.572 19.049,-5.263 28.55,-5.263 10.765,0 21.325,2.185 31.087,6.26 L 103.55,-39.37 C 92.694,-67.92 60.641,-82.315 32.09,-71.461 3.542,-60.606 -10.854,-28.548 0,0 M 61.033,4.42 C 61.006,4.431 60.979,4.438 60.951,4.449 60.923,4.46 60.896,4.472 60.869,4.482 Z m -254.967,100.62 c 20.745,9.331 45.526,0.181 55.244,-20.38 l 43.992,-93.096 c 4.861,-10.288 5.37,-21.833 1.431,-32.508 -3.938,-10.678 -11.824,-19.127 -22.204,-23.794 l -18.497,-8.314 -76.677,170.579 z m -19.676,-226.993 -17.126,-18.478 179.697,-166.561 179.697,166.561 -17.126,18.478 -131.511,-121.899 55.246,145.303 c 5.471,-1.148 10.969,-1.724 16.419,-1.724 32.502,0 63.194,19.809 75.414,51.948 l 28.861,75.909 22.1,58.122 -23.55,8.956 -8.55,-22.486 L 132.412,36.54 C 123.097,12.043 98.172,-2.013 73.247,1.341 l 41.264,108.527 -23.55,8.956 L 49.696,10.293 C 28.843,24.341 19.553,51.399 28.855,75.893 l 13.556,35.651 8.55,22.487 -23.55,8.956 L 5.312,84.863 -23.55,8.953 c -14.267,-37.526 1.46,-79.216 35.264,-98.559 l -63.346,-166.609 -72.006,160.184 18.497,8.313 h 0.001 c 16.6,7.463 29.211,20.979 35.51,38.054 6.299,17.074 5.485,35.54 -2.29,51.993 l -43.992,93.096 c -15.54,32.884 -55.173,47.507 -88.351,32.595 l -39.818,-17.899 97.339,-216.537 0.125,0.056 59.866,-133.18 z"
             style="fill:#8bc751;fill-opacity:1;fill-rule:nonzero;stroke:none"
             id="path24" />
        </g>
      </g>
    </g>
  </g>
</svg>
